<svg xmlns="http://www.w3.org/2000/svg" viewBox="0 0 298 299">
  <path fill="#FFF" d="M297.473 149.5c0 82.567-66.592 149.5-148.736 149.5C66.592 299 0 232.068 0 149.5 0 66.934 66.592 0 148.737 0s148.736 66.934 148.736 149.5z"/>
  <path fill="#007042" d="M136.145 139.256l.32 2.011c4.347 2.896 5.684 7.804 11.702 7.358 5.337.317 9.341-4.683 12-8.685-7.222-.997-16.01.546-24.022-.684z"/>
  <path fill="#007042" d="M134.809 62.833c-1.655 1.118.122 2.456 1.004 3.346 7.909-.122 16.696-1.229 25.039-.342l1.661-1.669c-4.228-4.116-9.782-8-15.018-11.018l-12.686 9.683z"/>
  <path fill="#007042" d="M295.001 154.274c-17.239 6.796-28.58-10.448-45.049-10.332-2.124-2.447-2.678-5.445-3.679-8.343 18.582-5.993 30.824 20.785 49.072 6.997-1.435-22.59-6.241-43.809-16.683-62.719-10.918-21.583-31.036-42.844-52.068-55.745-21.658-15.331-50.772-22.889-79.585-22.65-23.875.197-47.549 5.748-66.605 16.638C33.353 42.039 4.999 90.645 1.319 140.92l1.327 2.675c17.689 9.461 29.149-11.346 46.4-9.005 3.885 1.786-.782 4.778-.665 7.337-1.346 3.334-6.026 1.777-9.027 2.675-11.8 5.114-23.919 15.021-37.712 9.669 0 0 .1 1.033.205 2.515h-.021c.289 3.79.822 10.512.822 10.512 15.468 4.905 25.469-11.246 40.043-9.347-.342 3.223-.556 6.672-2.33 9.005-13.352.676-21.705 13.24-35.725 12.364l2.673 10.673c12.12 1.229 19.92-11.236 32.045-10.011l-.319 7.998c-10.684.998-17.578 11.012-28.366 11.68 1.439 24.692 18.552-3.788 29.348 1.004.443 2.667 2.013 5.228 1.007 8.023-8.679-.12-14.132 7.458-21.691 10.011 1.332 3.112 2.227 7.559 5.667 8.663 6.458-2.67 11.688-8.323 19.358-8.001-.887-2.895-1.666-6.791-1.326-9.347 9.672 2.555 15.245-5.017 22.033-9.347 1.552-13.696 11.108-24.139 17.006-36.041.631-2.628.842-5.237.801-7.84-.301-14.472-9.014-28.462-2.125-43.563 2.117-5.897 5.791-13.663 12.022-15.337-11.46 13.688-9.341 34.589-3.337 50.054 1.215 3.146 1.648 6.069 1.532 8.847-.515 12.206-11.87 21.505-16.228 32.546-5.439 11.018-.455 23.596 5.668 32.707-8.785 6.788-16.905 15.456-28.365 15.679-3.219-1.571-3.335-5.996-5.006-9.005-6.78-1.343-12.217 3.34-17.668 6.674l6.332 7.998c4.671-2.224 10.025-6.988 15.359-3.653 7.901 9.347-7.695 4.646-9.691 10.331 2.217 3.003 4.901 5.229 7.682 7.681 3.219-1.004 5.783-3.566 9.688-3.017 1.554 1.891 3.331 3.78 3.999 6.009l-6.013 3.68c4.341 4.449 9.798 8.681 15.017 10.695 3.121-10.47 11.461-18.577 15.359-28.705.779-3.893.993-8.576 1.988-12.022 11.232 17.465-12.342 27.816-12.342 44.388 2.456 2.219 5.454 3.439 8.344 4.663-.448-13.011 10.459-21.349 15.014-32.364 8.349-17.468-10.9-28.369-17.027-42.374-5.786-12.693 2.341-24.609 10.355-34.053 5.579-6.027 7.028-11.922 6.536-17.851-1.11-13.427-12.179-26.907-7.542-41.893 2.672-9.346 6.668-20.481 16.341-24.367-7.011 8.115-10.682 17.573-11.338 28.363-1.95 14.661 9.8 24.856 10.468 37.896.125 2.6-.186 5.312-1.121 8.182-5.451 11.794-17.793 20.674-17.689 34.695-1.449 18.454 22.696 25.478 20.02 44.409-.217 16.462-19.125 25.565-15.014 43.357l10.354 3.359c-5.896-20.022 14.907-31.169 15.017-49.072 1.001-15.135-15.239-23.023-19.358-36.044-4.332-12.909 5.117-23.246 12.342-33.05 3.554-5.531 4.388-10.745 3.818-15.837-1.449-12.617-11.634-24.428-11.154-38.216-.228-12.679 5.328-25.142 16.342-31.036-3.326 4.773-7.111 9.333-9.006 14.673-6.902 18.696 4.678 34.719 10.354 50.738.437 1.326.743 2.598.916 3.841 2.133 14.845-13.074 24.319-15.955 37.871-3.897 16.463 13.804 24.025 17.689 37.713 8.348 22.347-18.68 35.373-12.342 57.732-.111 6.569 7.568 4.019 11.68 5.351-10.01-18.463 6.13-33.705 11.016-49.713 5.457-17.138-10.879-26.822-17.667-40.065-7.134-14.902 9.098-24.139 12.661-36.703 2.992-8.57 10.69-.664 15.702-1.671 6.789 1.243 12.675-5.453 18.354-.662 2.773 11.346 15.894 18.354 15.999 30.696-.444 19.122-28.129 29.137-19.336 50.052 7.228 14.578 19.567 31.257 11.338 48.066l10.331-2.333c6.9-17.248-5.879-30.499-11.999-44.409-5.556-15.899 8.354-27.795 16.686-40.021 7.912-14.802-4.767-26.947-11.997-38.396-2.495-4.714-3.006-9.189-2.4-13.507 1.274-9.158 7.542-17.671 10.398-26.217 6.121-14.566 2.667-32.686-8.686-43.699l.343-.343c5.676 3.34 10.79 9.234 13.349 15.015 9.738 19.578-4.189 36.92-7.634 55.241l-.364 2.169c-.334 12.918 10.239 19.036 15.356 29.373 8.559 16.683-6.561 28.477-15.015 41.047-13.693 23.474 19.017 37.262 12.342 60.728l10.012-3.334c2.553-12.581-6.911-22.793-13.029-33.027-8.449-17.136 6.68-30.37 15.356-43.38 7.675-16.243-5.667-29.934-13.349-42.398-2.455-3.588-3.232-7.372-3.017-11.177h.024c.403-7.286 4.419-14.67 7.336-20.868 5.788-15.582 1.777-34.476-8.34-46.056 6.786 2.786 11.775 10.361 14.008 17.027 8.012 16.573-1.782 33.15-5.006 48.729l-.022 1.165c-.125 14.939 14.03 23.196 18.032 36.522 3.898 13.802-7.103 23.369-13.669 33.394-19.688 20.473 11.013 35.824 10.677 56.064 2.895-1.223 6.669-1.799 8.343-4.688-1.45-11.226-11.01-19.133-15.018-29.37-.216-4.886-1.335-10.907 2.014-14.672l.662.661c-1.223 16.344 13.024 26.253 17.348 40.386 5.02-3.02 10.237-5.882 14.353-10.331-1.549-1.561-3.883-2.779-5.987-3.68-1.135-2.445 2.099-4.786 3.656-7.014l9.325 3.334c2.781-2.56 5.806-4.655 7.358-7.998-3.343-2.34-7.014-4.029-11.016-4.688-.128-2.553 1.315-4.55 2.992-6.329 5.687-.217 10.136 2.444 14.697 4.664 2.44-2.216 5.134-5.1 6.01-8.318l-12.021-6.013c-8.233-5.228-6.01 6.107-10.012 8.663-11.232-.445-19.236-8.345-27.701-15.356 1-5.109 5.008-8.991 6.354-14.011 4.895-16.344-8.123-28.68-15.359-41.712-1.817-3.19-2.491-6.349-2.47-9.508.062-8.86 5.485-17.687 5.807-26.878 2.779-11.902-2.789-23.343-7.358-33.026 3.123 1.893 6.474 4.435 8.365 7.655 6.224 12.236 8.007 29.275 2.331 42.399-1.396 3.515-1.863 6.786-1.688 9.85.912 15.368 18.182 26.13 18.374 42.535 6.666 5.013 12.697 13.37 21.691 10.695.676 3.226-1.115 6.652-1.004 9.669 8.008-.444 13.353 5.577 20.362 7.682 1.668-2.892 4.564-5.787 4.347-9.027-7.895-2.333-13.571-10.105-22.356-10.331l1.646-7.681c9.244-.223 16.026 7.575 24.709 9.688 3.006-2.237 4.001-6.344 5.005-10.012-10.673-1.666-18.351-10.689-29.027-12.364.214-2.652-.559-5.756.662-7.998 10.12 0 16.797 8.135 26.032 10.354 8.897 4.224 5.993-6.343 8.001-10.354-14.135.564-22.681-12.556-36.363-13.006l-1.672-8.365c14.789-2.434 24.801 13.704 40.043 9.369 1.469-3.854 1.115-7.088 1.004-10.854l-.015-2.513zM74.732 103.212c-5.665 5.562-12.574 12.35-16.686 19.358-13.905-2.786-25.029 5.342-36.707 10.012-4.449.881-10.342 1.329-14.01-1.669 11.016-18.14 26.561-34.826 22.674-58.739.458-.793 1.048-1.043 1.668-1.004 1.036.064 2.186.935 3.018 1.349 8.576 6.674 12.689 15.901 13.69 26.029 10.784-4.121 25.454-11.246 37.025-3.679-2.456 3.446-7.211 5.348-10.672 8.343zm48.066 3.36a15.788 15.788 0 012.994-.408c4.333-.163 8.6 1.473 10.674 4.73v1.346c-3.78-.337-9.895-4.121-13.349.662-2.22.992-2.553-1.575-2.331-3.015-.447-1.666.562-2.993 2.012-3.315zm53.392-5.349c-6.563-2.008-14.016-.89-20.362 1.669-5.679 4.227-4.786 12.907-3.338 19.016l1.691 1.349c2.775-.676 2.887-4.243 5.325-5.03 4.124 1.007 9.799 2.461 13.69 0 3.446.116 3.329 4.902 3.657 7.358-2.444 12.906-7.881 26.914-21.007 33.026-5.457 2.676-12.486.882-17.715-1.004-12.902-7.673-20.123-22.893-18.674-36.684 1.004-2.113 2.555-3.803 5.006-2.355 5.213 3.56 10.887-2.764 15.678 1.672 5.782-2.559 2.331-9.67 2.331-15.015-4.672-6.015-12.67-5.136-19.679-4.688-3.119-1.899.24-4.875 1.004-6.994 5.323-7.506 14.036-9.847 23.155-10.031.608-.014 1.218-.006 1.829 0 3.26.031 6.547.295 9.714.685 6.461 1.668 13.581 4.46 16.687 11.359.342 1.892 2.233 3.555 1.008 5.667zm-.001 8.002c-.103 1.343.236 2.901-1.327 3.677-4.227-1.663-10.123-4.008-14.353-.662-2.452-5.231 4.341-4.113 6.672-5.668.434-.014.863-.036 1.304-.047 3.104-.062 6.347.175 7.704 2.7zm27.71-19.017c-11.237-4.217-22.793-9.336-35.36-11.336-26.81-4.568-52.638 1.311-74.785 12-1.885-11.239-7.334-21.013-14.01-30.352 4.004-1.338 8.901.862 13.028 1.988 3.451.99 6.338 3.345 10.011 4.021.654-6.68-3.235-13.263-6.012-19.383 1.891-1.449 4.903-.34 7.016.342 8.781 3.331 16.676 8.552 24.685 13.349 4.112-4.795 5.665-11.688 7.336-18.032l-13.669-12.342v-1.326l18.01-1.007c3.001-5.668 5.019-11.672 8.023-17.345 3.671 5.006 4.895 11.561 8.001 17.003l18.031 1.004-.342 1.671-13.349 12.685c2.326 5.68 4.675 11.368 7.017 17.027 10.12-5.882 19.809-13.245 32.042-14.032-1.116 6.463-6.007 13.262-5.348 19.7 7.566-2.115 14.461-6.789 22.695-6.352-5.128 9.462-12.581 18.932-13.02 30.717zm35.373 32.708c-6.885-10.67-16.124-20.69-27.359-26.694.659-3.665 5.777-3.899 9.347-4.344 9.9-.99 18.571 3.107 26.697 7.336 1.555-3.662 2.209-7.792 3.313-11.677 2.684-6.569 7.937-13.252 14.72-16.024 1.44.22 2.441 1.788 1.988 3.337-4.328 22.69 11.235 38.713 21.691 56.064-12.006 8.015-23.38-4.338-34.718-7.339-5.006-.773-10.885-1.441-15.679-.659z"/>
  <path fill="#007042" d="M147.522 129.698c-2.385.026-4.622-2.042-6.952.646-.397.546-.604 1.082.089 1.405 3.152.746 3.932 1.864 6.423 2.176 2.648-.047 2.266-.585 6.885-2.179.303-.107.72-.776.203-1.289-2.868-2.847-4.85-.813-6.648-.759z"/>
  <polygon fill="#007042" points="250.797 281.899 255.895 281.899 255.895 296.172 259.363 296.172 259.363 281.899 264.449 281.899 264.449 278.993 250.797 278.993"/>
  <polygon fill="#007042" points="274.961 290.711 271.844 278.992 266.653 278.992 266.653 296.172 269.875 296.172 269.875 282.649 273.273 296.172 276.613 296.172 280.023 282.649 280.023 296.172 283.246 296.172 283.246 278.992 278.043 278.992"/>
</svg>
