<?xml version="1.0" encoding="utf-8"?>
<!-- Generator: Adobe Illustrator 25.0.0, SVG Export Plug-In . SVG Version: 6.00 Build 0)  -->
<svg version="1.1" id="Layer_1" xmlns="http://www.w3.org/2000/svg" xmlns:xlink="http://www.w3.org/1999/xlink" x="0px" y="0px"
	 viewBox="0 0 300 65" enable-background="new 0 0 300 65" xml:space="preserve">
<g>
	<path fill="#FFFFFF" d="M33.83,22.113c0.871-2.797-0.542-4.873-1.715-6.42c12.802-0.928,23.269-1.452,34.452-1.73l0.726-0.018
		l2.398-2.108l-0.386-1.239c-0.153-0.49-0.25-1.052-0.352-1.646c-0.228-1.322-0.486-2.821-1.464-4.191l-0.59-0.827l-1.016-0.011
		C47.313,3.715,27.839,5.166,6.372,8.337L5.283,8.498l-3.772,8.491l2.313,1.52l0.677-0.05c2.854-0.209,5.65-0.484,8.354-0.75
		c3.359-0.331,6.58-0.647,9.857-0.843c-6.58,12.725-12.158,25.876-17.121,37.58c-1.565,3.655,1.528,5.848,3.19,7.025
		c0.596,0.422,1.211,0.857,1.543,1.233l0.196,0.194c0.94,0.807,2.03,1.216,3.068,1.216c0.881,0,1.726-0.295,2.408-0.894l0.351-0.308
		l0.179-0.431c1.231-2.971,2.446-5.946,3.661-8.92c4.223-10.339,8.589-21.029,13.53-31.168L33.83,22.113z"/>
	<path fill="#FFFFFF" d="M44.468,15.346l-0.256,0.011l-0.245,0.075c-2.478,0.758-4.136,1.981-4.93,3.638
		c-1.583,2.906-0.375,6.454,0.064,7.546c1.072,2.412,3.399,3.882,5.993,3.882c0.326,0,0.657-0.023,0.99-0.071
		c2.281-0.168,4.473-1.506,6.027-3.685l0.1-0.154c1.006-1.725,1.255-4.266,0.621-6.321l-0.065-0.179
		C51.461,16.957,48.369,15.175,44.468,15.346z"/>
	<path fill="#FFFFFF" d="M95.928,38.626c-1.5-1.931-3.557-4.569-6.548-4.274l-0.647,0.064l-9.78,8.719
		c0.619-0.996,1.26-1.952,1.926-2.874l0.408-0.565l-0.031-0.696c-0.156-3.459-3.716-5.639-6.115-7.108l-1.331-0.815l-10.06,9.868
		c0.767-1.499,1.528-2.994,2.259-4.488l0.577-1.181l-0.854-0.999c-2.253-2.632-4.389-4.171-6.528-4.703l-1.219-0.303l-0.802,0.966
		c-4.485,5.401-8.904,10.317-13.467,14.987l-0.992,0.963c-1.049,1.021-2.111,2.054-3.185,3.021c1.58-3.585,3.407-7.102,5.301-10.748
		l0.505-0.974l0.057-0.238c0.727-3.043-1.503-5.052-3.131-6.519c-0.594-0.536-1.156-1.041-1.478-1.487l-0.518-0.716l-3.038-0.345
		l-0.684,0.96c-4.99,7.012-7.875,15.062-10.665,22.846l-0.857,2.385l1.033,2.087l0.404,0.291c0.473,0.34,0.954,0.851,1.462,1.391
		c1.3,1.381,3.082,3.273,5.888,2.92l0.383-0.049l0.338-0.188c4.204-2.334,8-5.62,11.629-9.062c-0.554,1.179-1.095,2.376-1.597,3.587
		l-0.353,0.851l1.013,1.993l0.501,0.297c0.385,0.228,0.794,0.521,1.228,0.832c1.573,1.129,3.531,2.533,6.183,2.054l0.75-0.136
		l0.469-0.6c2.112-2.701,4.475-5.292,6.912-7.766c-0.068,0.114-0.137,0.229-0.206,0.345l-0.25,0.417l-0.211,3.357l0.914,0.644
		c0.575,0.406,1.156,0.885,1.772,1.391c1.261,1.037,2.689,2.212,4.384,2.974l1.303,0.586l0.977-1.043
		c0.785-0.839,1.58-1.704,2.388-2.583c1.966-2.139,3.963-4.311,6.026-6.344c-1.041,2.888-1.168,6.017,1.271,9.213l0.232,0.304
		l0.328,0.197c1.097,0.658,2.948,1.771,5.234,1.771c0.556,0,1.137-0.066,1.74-0.22c2.15-0.451,4.222-2.107,5.292-4.236l1.653-3.29
		l-3.659,0.403c-0.472,0.054-0.738,0.026-0.873-0.002c0.002-4.122,2.278-7.594,4.68-11.26c0.82-1.251,1.667-2.545,2.428-3.876
		l0.679-1.189l-0.863-1.063C96.324,39.136,96.129,38.885,95.928,38.626z"/>
	<path fill="#FFFFFF" d="M290.917,48.701c-1.23-3.618-1.876-5.96,0.271-8.408l0.377-0.431l0.093-0.564
		c0.585-3.577-1.957-6.846-3.476-8.799l-1.331-1.71l-1.598,1.462c-5.791,5.298-10.011,11.457-14.092,17.413
		c-2.003,2.922-4.062,5.928-6.289,8.797c0.002-0.051,0.003-0.101,0.004-0.15c0.842-4.442,2.706-8.888,5.858-13.976l0.3-0.484v-0.569
		c0-2.967-2.217-6.105-5.046-7.146l-1.132-0.416l-0.896,0.806c-1.723,1.55-3.499,3.175-5.299,4.821
		c-1.351,1.235-2.717,2.485-4.084,3.724c0.147-0.246,0.627-1.023,0.627-1.023l0.737-3.325l-0.709-0.769
		c-0.316-0.343-0.652-0.796-1.009-1.276c-1.15-1.551-2.582-3.48-5.023-3.949l-0.969-0.186c0,0-1.646,1.469-2.1,1.878
		c-2.69,2.424-5.263,4.743-8.104,6.179c-0.382-1.995-1.321-3.866-2.834-5.661l-0.085-0.095c-2.393-2.498-5.338-3.817-8.52-3.817
		c-0.629,0-1.272,0.052-1.914,0.155l-0.119,0.023c-9.206,2.061-13.639,11.616-16.174,18.776c-2.643,3.388-5.103,5.289-7.487,5.783
		c0.002-0.037,0.006-0.076,0.012-0.118c2.809-7.598,6.407-15.758,11.286-25.586c4.09-0.152,8.114-0.281,12.153-0.411
		c4.112-0.132,8.241-0.265,12.471-0.422l2.304-0.086l-0.41-2.268l-0.09-0.529c-0.189-1.151-0.426-2.583-1.336-3.886l-0.565-0.811
		l-0.988-0.042c-1.177-0.051-2.374-0.076-3.66-0.076c-3.89,0-7.774,0.234-11.532,0.459c-1.545,0.093-3.04,0.183-4.516,0.256
		c0.546-1.009,1.143-2.145,1.464-3.427l0.13-0.52l-0.147-0.516c-0.855-2.999-3.676-5.986-6.56-6.95l-1.498-0.5l-0.834,1.341
		c-1.56,2.507-2.752,5.079-3.904,7.565c-0.644,1.388-1.258,2.714-1.927,4.019l-6.15,0.619l-0.573,0.498
		c-0.981,0.85-3.023,2.619-2.119,5.079l0.507,1.382l4.971-0.251c-0.809,1.674-1.57,3.368-2.315,5.024
		c-3.28,7.296-6.381,14.19-12.919,19.175c-0.476,0.172-0.773,0.215-0.934,0.222c-0.242-1.166,0.272-2.405,1.104-4.186
		c0.24-0.516,0.478-1.027,0.683-1.53c0.919-2.242,2.137-4.386,3.426-6.655c1.36-2.396,2.768-4.873,3.828-7.529l0.248-0.62
		l-0.176-0.646c-0.605-2.231-2.791-2.299-3.613-2.325c-0.138-0.004-0.328-0.01-0.445-0.02c-0.543-0.337-0.999-0.923-1.034-1.354
		l-0.025-0.315l-0.121-0.292c-0.089-0.215-0.01-0.722,0.06-1.169c0.164-1.052,0.599-3.846-2.592-4.712l-1.382-0.375l-0.801,1.187
		c-2.476,3.672-6.121,8.635-10.605,11.855c-2.953-6.191-9.35-6.995-14.621-6.995c-1.497,0-3.02,0.064-4.491,0.126
		c-1.447,0.061-2.815,0.119-4.137,0.119c-0.135,0-0.268-0.001-0.399-0.002c2.685-6.098,5.683-12.093,8.594-17.916l0.388-0.776
		l-0.866-2.336l-0.579-0.361c-0.309-0.192-0.749-0.655-1.174-1.103c-1.073-1.13-2.41-2.538-4.325-2.538
		c-0.871,0-1.707,0.3-2.484,0.891l-0.321,0.244l-0.201,0.35c-3.386,5.882-6.15,12.046-8.823,18.007
		c-0.863,1.924-1.725,3.847-2.607,5.76c-1.169,0.06-2.342,0.132-3.514,0.204c-2.498,0.154-5.074,0.312-7.534,0.336l9.444-21.805
		l-0.258-0.738c-0.717-2.048-2.262-3.226-3.625-4.266c-0.54-0.412-1.049-0.8-1.454-1.206c-0.698-0.697-1.59-1.081-2.513-1.081
		c-0.923,0-1.816,0.384-2.513,1.082l-0.267,0.267l-12.556,28.667c-0.213,0.053-0.612,0.089-0.893,0.115
		c-1.148,0.104-2.883,0.261-4.042,1.8l-0.275,0.366l-0.088,0.449c-0.258,1.305,0.121,2.178,0.485,2.681
		c0.505,0.699,1.196,1.038,1.86,1.221l-6.61,15.127c-1.829,4.193,1.753,6.998,3.894,8.675c0.528,0.413,1.027,0.804,1.4,1.157
		l0.578,0.546h2.934l0.544-1.138c2.547-5.331,4.948-10.952,7.27-16.389c0.662-1.55,1.324-3.099,1.988-4.641
		c3.525,2.706,4.956,6.875,5.529,10.087l0.046,0.26l0.112,0.239c0.417,0.889,0.214,2.309,0.018,3.682
		c-0.37,2.59-0.988,6.914,4.137,8.354c0.406,0.146,0.843,0.223,1.274,0.223c1.321,0,2.449-0.729,2.942-1.902l0.047-0.122
		c3.015-8.729,7.008-17.339,10.928-25.7l3.722-0.082c-2.998,3.09-5.206,6.721-6.279,10.431c-1.554,5.667-0.173,11.169,3.644,14.392
		c2.23,1.786,4.967,2.654,8.367,2.654c0.25,0,0.502-0.005,0.756-0.014l0.181-0.007l0.176-0.038
		c9.179-2.007,14.732-11.438,16.21-19.752c1.657-0.903,3.185-2.052,4.642-3.289c-3.342,4.977-6.304,10.561-5.13,17.151l0.036,0.202
		l0.076,0.19c0.991,2.479,3.318,3.933,7.013,4.325c0.312,0.019,0.622,0.027,0.929,0.027c3.996,0,7.814-1.568,11.076-4.491
		c0.466,1.507,1.376,3.014,3.103,4.064l0.145,0.088l0.157,0.062c1.421,0.564,2.886,0.851,4.354,0.851
		c4.188,0,7.812-2.257,10.744-4.757c0.39,0.942,0.89,1.918,1.693,2.805c1.922,2.368,4.893,3.726,8.162,3.726
		c0.944,0,1.871-0.117,2.705-0.335c8.428-1.959,13.683-10.169,15.797-17.017c0.947-0.372,1.883-0.774,2.802-1.193
		c-1.663,3.067-3.169,6.203-4.355,9.551l-0.358,1.011l0.644,0.857c1.668,2.223,3.688,4.63,6.576,5.061l1.038,0.154l0.718-0.767
		c3.196-3.418,6.641-6.875,9.846-10.014c-0.447,2.841-0.249,5.707,0.651,8.228l0.031,0.088l0.04,0.084
		c1.039,2.23,3.283,3.804,5.799,4.099c0.498,0.073,0.999,0.11,1.488,0.11c2.435,0,4.6-0.882,6.262-2.549l0.115-0.116l0.095-0.133
		c1.317-1.843,2.583-3.725,3.812-5.57c-0.383,0.8-0.68,1.588-0.939,2.278l-0.336,0.893l0.482,0.822
		c1.055,1.802,2.929,2.57,4.296,3.132l0.37,0.153l0.086,0.026c1.65,0.518,3.285,0.779,4.859,0.779c3.024,0,5.627-0.99,7.531-2.865
		C293.841,57.299,292.221,52.533,290.917,48.701z M130.9,41.449c-0.804-1.434-1.715-2.811-2.807-4.052
		c1.233-0.104,2.491-0.176,3.729-0.246c0.233-0.013,0.465-0.026,0.698-0.039C132.041,38.464,131.505,39.899,130.9,41.449z
		 M156.533,53.797c-0.082,0.004-0.164,0.007-0.246,0.007c-0.749,0-1.295-0.188-1.646-0.584c-0.796-0.864-1.07-2.069-0.829-3.512
		c0.491-2.391,1.93-4.784,4.118-6.894c1.293,1.717,3.233,3.3,5.531,3.34C162.274,49.686,159.866,53.104,156.533,53.797z
		 M221.914,55.984c-0.693,0-1.375-0.505-1.599-1.13c-0.999-3.192,0.27-5.938,3.02-9.204c0.863,1.167,1.835,2.004,2.906,2.5
		l0.076,0.035l0.079,0.029c0.584,0.213,1.211,0.441,1.895,0.605C227.116,52.198,225.146,55.519,221.914,55.984z M280.931,57.82
		c-0.191,0.318-0.524,0.534-0.837,0.534c-0.061,0-0.119-0.009-0.178-0.024c-0.918-0.489-1.159-1.499-1.446-3.476
		c-0.034-0.238-0.068-0.474-0.105-0.704l-0.536-3.365l-2.676,2.108c-0.285,0.225-0.548,0.466-0.791,0.72
		c1.278-1.914,2.588-3.842,3.972-5.737c0.091,2.08,0.933,3.807,1.642,5.262C280.928,55.093,281.45,56.293,280.931,57.82z"/>
</g>
<path fill="#DD0F2D" d="M65.86,5.921c1.098,1.539,0.988,3.516,1.534,5.27l-0.878,0.772c-13.066,0.325-24.71,0.988-37.779,1.974
	c0.659,2.526,4.175,4.394,3.183,7.581c-6.368,13.068-11.64,26.686-17.241,40.199c-0.876,0.767-2.087,0.323-2.855-0.336
	c-1.648-1.867-5.711-3.072-4.394-6.149c5.823-13.729,11.644-27.347,18.674-40.522c-7.359,0.219-14.28,1.207-21.749,1.754
	l-0.327-0.215l2.636-5.933C25.994,7.46,45.538,5.702,65.86,5.921"/>
<path fill="#DD0F2D" d="M50.92,20.858c0.441,1.427,0.331,3.406-0.437,4.723c-1.098,1.539-2.746,2.746-4.614,2.856
	c-2.085,0.327-4.063-0.661-4.94-2.634c-0.661-1.648-1.098-4.065-0.11-5.823c0.656-1.427,2.305-2.199,3.733-2.636
	C47.186,17.234,49.822,18.222,50.92,20.858"/>
<path fill="#DD0F2D" d="M39.17,30.412c1.429,1.978,4.941,3.624,4.285,6.37c-3.078,5.931-6.152,11.749-8.238,18.007
	c3.512-1.752,6.809-5.156,9.886-8.126c4.829-4.94,9.333-9.989,13.617-15.149c2.195,0.546,4.173,2.522,5.492,4.063
	c-2.415,4.94-5.16,9.881-7.359,14.934l17.243-16.914c1.976,1.21,5.053,3.077,5.162,5.492c-2.855,3.95-5.05,8.237-6.809,12.523
	l17.129-15.27c2.199-0.22,3.953,2.526,5.382,4.287c-3.073,5.379-7.687,10.208-7.355,16.802c0.546,1.425,2.083,1.425,3.075,1.316
	c-0.77,1.532-2.309,2.858-3.957,3.186c-2.085,0.551-3.843-0.327-5.492-1.317c-4.278-5.604,1.429-11.095,3.738-16.036
	c-6.152,3.951-11.534,10.32-16.473,15.597c-2.199-0.989-3.956-2.857-5.823-4.174l0.11-1.756c2.305-3.844,4.394-7.799,6.809-11.534
	l-0.661,0.111c-5.602,5.156-11.418,10.54-16.144,16.583c-2.415,0.438-4.172-1.537-6.036-2.639l-0.332-0.654
	c1.864-4.502,4.285-8.788,6.039-13.183c-6.148,5.712-11.971,12.301-18.89,16.144c-2.636,0.332-3.953-2.526-5.933-3.95L27.2,54.247
	c2.965-8.238,5.821-16.695,10.981-23.947L39.17,30.412"/>
<path fill="#DD0F2D" d="M223.678,42.273c-3.516,3.735-6.92,7.91-5.271,13.179c0.546,1.54,2.083,2.634,3.735,2.525
	c5.268-0.766,7.687-6.7,8.78-10.982c-1.43,0.219-2.635-0.22-3.84-0.659C225.43,45.57,224.337,43.702,223.678,42.273 M158.438,39.743
	c-3.289,2.53-5.819,5.827-6.585,9.563c-0.332,1.972,0,3.839,1.316,5.268c0.878,0.99,2.195,1.317,3.624,1.21
	c5.276-0.994,8.345-6.809,9.228-11.534l-2.199-0.107C161.406,44.36,159.212,41.615,158.438,39.743L158.438,39.743z M123.409,36.016
	c3.953,2.41,6.036,6.697,7.684,10.32c1.539-3.735,3.077-7.687,4.285-11.422C131.424,35.245,127.14,35.245,123.409,36.016z
	 M131.971,8.446L121.648,32.28c4.94,0.219,10.217-0.332,15.377-0.551c3.843-8.237,7.245-16.694,11.859-24.71
	c2.305-1.754,3.953,1.758,5.713,2.855l0.327,0.882c-3.404,6.809-6.806,13.617-9.773,20.641c8.345,0.992,20.869-3.071,24.932,6.042
	c0.327,0.663-0.112,1.536,0.327,2.087c5.711-3.072,10.217-8.896,13.621-13.946c2.415,0.656,0.436,2.856,1.21,4.719
	c0.107,1.319,1.205,2.526,2.303,3.078c0.985,0.331,2.526-0.22,2.853,0.985c-1.975,4.949-5.268,9.339-7.247,14.168
	c-0.985,2.419-2.746,4.94-1.648,7.695c0.882,1.205,2.53,0.766,3.628,0.322c9.555-7.14,12.301-18.123,17.354-27.675
	c0.107-0.215-0.225-0.325-0.225-0.437l-6.477,0.327c-0.443-1.207,0.766-2.195,1.648-2.961l6.589-0.663
	c2.19-4.063,3.731-8.347,6.258-12.41c2.311,0.772,4.613,3.297,5.271,5.602c-0.551,2.199-2.194,4.063-2.638,6.042
	c7.363-0.22,15.05-1.102,22.736-0.771c0.767,1.098,0.879,2.415,1.098,3.626c-8.784,0.327-17.133,0.547-25.81,0.878
	c-4.39,8.786-8.564,17.79-11.965,27.018c-0.224,1.102,0,2.418,1.317,2.745c4.063-0.327,7.351-3.623,9.877-6.92
	c2.423-6.921,6.486-15.924,14.831-17.792c3.404-0.547,6.365,0.663,8.672,3.072c1.761,2.088,2.746,4.399,2.531,7.252
	c4.828-1.429,8.672-5.271,12.627-8.788c2.307,0.443,3.517,3.077,4.94,4.618l-0.438,1.971c-1.979,3.186-3.624,6.697-5.16,10.105
	c5.599-4.726,11.642-10.433,17.133-15.373c2.088,0.767,3.736,3.185,3.736,5.268c-2.858,4.614-5.165,9.443-6.155,14.831
	c0,1.317-0.438,2.742,0.879,3.624l1.325-0.331c7.463-9.116,12.516-19.44,21.519-27.678c1.541,1.98,3.512,4.614,3.082,7.248
	c-6.267,7.145,5.595,14.495-2.204,21.2c-2.745,2.746-6.92,2.746-10.432,1.645c-1.317-0.547-2.854-1.098-3.624-2.414
	c0.663-1.761,1.429-3.731,2.965-4.941c0.332,2.083,0.443,4.609,2.746,5.711c1.425,0.547,2.966-0.219,3.628-1.54
	c1.752-4.722-3.297-7.468-2.311-12.408c0.219-2.087,1.102-4.175,1.536-6.042c-5.927,6.477-9.993,13.729-14.935,20.645
	c-1.648,1.653-3.843,2.195-6.042,1.872c-1.863-0.219-3.512-1.321-4.278-2.965c-1.648-4.613-0.551-10.217,2.195-14.28l-0.878,0.22
	c-5.165,4.945-10.437,10.105-15.158,15.153c-2.195-0.327-3.951-2.521-5.272-4.282c1.868-5.271,4.614-10.101,7.468-14.934
	c-2.961,1.536-6.146,3.185-9.443,4.394c-1.867,6.921-7.032,14.822-14.606,16.583c-2.961,0.771-6.701,0-8.896-2.746
	c-1.316-1.425-1.647-3.297-2.414-4.945c-4.175,4.063-9.335,7.803-15.158,5.492c-2.521-1.536-2.745-4.502-2.521-7.136
	c-3.297,4.502-7.91,7.574-13.51,7.247c-2.087-0.224-4.395-0.878-5.272-3.072c-1.429-8.022,4.063-14.5,8.346-20.758
	c-0.327-0.882-0.547-1.76-0.986-2.526c-3.404,2.962-6.7,6.59-10.656,8.453c-1.093,7.91-6.257,17.245-14.822,19.117
	c-2.969,0.104-5.603-0.443-7.802-2.203c-3.512-2.966-4.172-7.902-2.965-12.301c1.429-4.94,5.053-9.554,9.451-12.739l-0.336-0.327
	l-9.771,0.216c-4.175,8.9-8.347,17.792-11.534,27.019c-0.325,0.771-1.208,0.771-1.754,0.552c-5.711-1.541-1.211-7.248-2.965-10.983
	c-0.882-4.941-3.297-9.886-8.127-12.524l-0.441,0.224c-3.294,7.579-6.477,15.373-9.993,22.732h-0.878
	c-2.09-1.975-6.368-4.063-4.835-7.578l7.581-17.349c-0.988-0.663-3.622,0.111-3.187-2.092c1.319-1.752,4.394-0.216,5.163-2.303
	l12.41-28.334c0.661-0.661,1.537-0.661,2.199,0C128.898,5.265,131.203,6.253,131.971,8.446L131.971,8.446z M0,0"/>
</svg>
