<svg xmlns="http://www.w3.org/2000/svg" viewBox="0 0 112 112">
<path d="M56.009,0A56.011,56.011,0,1,0,112.02,56.01,56.073,56.073,0,0,0,56.009,0Zm29.81,41.4a23.96,23.96,0,0,1-5.464,5.8c.009.325.015.65.015.975C80.37,64.509,67.941,81.4,47.141,81.4a33.136,33.136,0,0,1-17.9-5.244,1,1,0,0,1,.654-1.835,22.675,22.675,0,0,0,2.584.151,21.6,21.6,0,0,0,11.381-3.193,12.318,12.318,0,0,1-8.842-8.221,1,1,0,0,1,.2-.969.993.993,0,0,1,.938-.317c.188.036.377.067.565.093a12.372,12.372,0,0,1-5.726-10.412v-.143a1,1,0,0,1,1.485-.874,10.434,10.434,0,0,0,1.349.626A12.355,12.355,0,0,1,32.754,37.1a1,1,0,0,1,1.64-.13A31.283,31.283,0,0,0,55.762,48.356a12.62,12.62,0,0,1-.088-1.493A12.334,12.334,0,0,1,76.6,38.023,21.627,21.627,0,0,0,82.953,35.5a1,1,0,1,1,1.464,1.163,12.224,12.224,0,0,1-2.32,4.188,21.392,21.392,0,0,0,2.487-.924A1,1,0,0,1,85.819,41.4Z"/>
</svg>
